<svg width="187" height="34" viewBox="0 0 187 34" fill="none" xmlns="http://www.w3.org/2000/svg">
<path d="M64.2982 25.4177H55.9765V24.2918C56.6945 24.2918 57.2207 24.2225 57.5552 24.0838C57.8897 23.9369 58.1059 23.7289 58.2038 23.4597C58.3099 23.1823 58.3629 22.807 58.3629 22.3338V11.9316L52.0971 25.4177H51.3506L44.9992 11.9316V21.8076C44.9992 22.3297 45.0155 22.7295 45.0481 23.0069C45.0889 23.2843 45.1828 23.5208 45.3296 23.7167C45.4846 23.9125 45.7253 24.0593 46.0516 24.1572C46.378 24.247 46.8308 24.2918 47.41 24.2918V25.4177H41.2667V24.2918C41.8541 24.2918 42.3069 24.2429 42.6251 24.145C42.9514 24.0471 43.188 23.9002 43.3349 23.7044C43.4817 23.5086 43.5714 23.2761 43.6041 23.0069C43.6367 22.7295 43.653 22.3297 43.653 21.8076V12.4089C43.653 11.7073 43.6163 11.2015 43.5429 10.8914C43.4695 10.5814 43.2655 10.3489 42.931 10.1939C42.6047 10.0307 42.0499 9.94912 41.2667 9.94912V8.82324H47.3366L52.8436 20.5348L58.3629 8.82324H64.2982V9.94912C63.2784 9.94912 62.6176 10.1001 62.3157 10.4019C62.022 10.6956 61.8751 11.1974 61.8751 11.9072V22.3338C61.8751 22.7825 61.9241 23.1456 62.022 23.4229C62.1199 23.7003 62.3442 23.9165 62.6951 24.0715C63.054 24.2184 63.5884 24.2918 64.2982 24.2918V25.4177Z" fill="#333333"/>
<path d="M78.0046 20.3758C78.0046 21.4854 77.7353 22.4522 77.1969 23.2762C76.6584 24.1002 75.9282 24.7325 75.0063 25.1731C74.0925 25.6055 73.089 25.8217 71.9958 25.8217C70.9678 25.8217 69.9929 25.6218 69.071 25.222C68.1572 24.8222 67.4066 24.2144 66.8192 23.3986C66.24 22.5827 65.9503 21.5833 65.9503 20.4003C65.9503 18.6299 66.5541 17.2878 67.7615 16.3741C68.969 15.4522 70.4049 14.9912 72.0692 14.9912C73.3093 14.9912 74.3781 15.236 75.2755 15.7255C76.173 16.215 76.8501 16.8717 77.307 17.6958C77.772 18.5198 78.0046 19.4131 78.0046 20.3758ZM74.6269 20.3024C74.6269 18.9155 74.4434 17.8712 74.0762 17.1695C73.7091 16.4679 72.9952 16.1171 71.9346 16.1171C71.2575 16.1171 70.7271 16.2721 70.3437 16.5821C69.9684 16.884 69.7033 17.3572 69.5482 18.0017C69.4014 18.6381 69.328 19.4662 69.328 20.486C69.328 21.7424 69.4952 22.7581 69.8297 23.5332C70.1642 24.3082 70.8944 24.6958 72.0203 24.6958C72.7627 24.6958 73.3256 24.4837 73.7091 24.0594C74.1007 23.627 74.3495 23.0967 74.4556 22.4685C74.5698 21.8321 74.6269 21.1101 74.6269 20.3024Z" fill="#333333"/>
<path d="M92.127 20.3758C92.127 21.4854 91.8578 22.4522 91.3193 23.2762C90.7808 24.1002 90.0506 24.7325 89.1287 25.1731C88.215 25.6055 87.2115 25.8217 86.1182 25.8217C85.0903 25.8217 84.1153 25.6218 83.1934 25.222C82.2796 24.8222 81.5291 24.2144 80.9416 23.3986C80.3624 22.5827 80.0728 21.5833 80.0728 20.4003C80.0728 18.6299 80.6765 17.2878 81.884 16.3741C83.0914 15.4522 84.5273 14.9912 86.1917 14.9912C87.4318 14.9912 88.5005 15.236 89.398 15.7255C90.2954 16.215 90.9726 16.8717 91.4294 17.6958C91.8945 18.5198 92.127 19.4131 92.127 20.3758ZM88.7494 20.3024C88.7494 18.9155 88.5658 17.8712 88.1987 17.1695C87.8315 16.4679 87.1177 16.1171 86.057 16.1171C85.3799 16.1171 84.8496 16.2721 84.4661 16.5821C84.0908 16.884 83.8257 17.3572 83.6707 18.0017C83.5238 18.6381 83.4504 19.4662 83.4504 20.486C83.4504 21.7424 83.6176 22.7581 83.9521 23.5332C84.2866 24.3082 85.0168 24.6958 86.1427 24.6958C86.8851 24.6958 87.4481 24.4837 87.8315 24.0594C88.2231 23.627 88.472 23.0967 88.578 22.4685C88.6923 21.8321 88.7494 21.1101 88.7494 20.3024Z" fill="#333333"/>
<path d="M107.608 25.4178H101.269V24.2919C101.75 24.2919 102.093 24.2307 102.297 24.1084C102.509 23.9778 102.639 23.7902 102.688 23.5454C102.737 23.3007 102.762 22.8968 102.762 22.3339V18.8706C102.762 18.1771 102.66 17.6305 102.456 17.2307C102.252 16.8228 101.836 16.6188 101.207 16.6188C100.351 16.6188 99.7104 16.9492 99.2861 17.6101C98.87 18.2628 98.662 19.0174 98.662 19.8741V22.6154C98.662 23.2599 98.7558 23.7004 98.9435 23.937C99.1311 24.1736 99.535 24.2919 100.155 24.2919V25.4178H93.6934V24.2919C94.2237 24.2919 94.6154 24.2471 94.8683 24.1573C95.1212 24.0594 95.2884 23.8922 95.37 23.6556C95.4516 23.4108 95.4924 23.0274 95.4924 22.5052V18.5524C95.4924 17.9813 95.3823 17.6101 95.162 17.4388C94.9417 17.2593 94.4522 17.1695 93.6934 17.1695V16.0436L98.4539 14.9912C98.5274 15.4644 98.5641 15.905 98.5641 16.3129C98.5641 16.4189 98.56 16.5128 98.5518 16.5943C98.5518 16.6678 98.5518 16.7534 98.5518 16.8513C99.0658 16.3047 99.6002 15.8601 100.155 15.5174C100.71 15.1666 101.403 14.9912 102.235 14.9912C102.937 14.9912 103.565 15.1177 104.12 15.3706C104.683 15.6235 105.124 16.0069 105.442 16.5209C105.76 17.0349 105.919 17.655 105.919 18.3811V22.5052C105.919 23.1905 106.009 23.6596 106.188 23.9126C106.376 24.1655 106.849 24.2919 107.608 24.2919V25.4178Z" fill="#333333"/>
<path d="M130.318 25.5401H129.167C128.996 24.8385 128.715 24.2102 128.323 23.6555C127.703 24.3 126.993 24.8548 126.194 25.3198C125.394 25.7848 124.313 26.0174 122.95 26.0174C121.457 26.0174 120.071 25.6543 118.79 24.9282C117.517 24.2021 116.501 23.1904 115.742 21.8932C114.984 20.5879 114.604 19.1193 114.604 17.4876C114.604 16.3291 114.808 15.2236 115.216 14.1712C115.632 13.1187 116.22 12.1927 116.978 11.3932C117.745 10.5936 118.655 9.96544 119.707 9.50856C120.768 9.05168 121.927 8.82324 123.183 8.82324C125.255 8.82324 126.969 9.5004 128.323 10.8547C128.502 10.5039 128.678 9.99399 128.849 9.32499H129.951L130.146 15.4317H128.971C128.759 14.3955 128.376 13.4736 127.821 12.6659C127.266 11.8582 126.606 11.2422 125.839 10.818C125.08 10.3856 124.284 10.1694 123.452 10.1694C122.522 10.1694 121.686 10.4264 120.943 10.9404C120.201 11.4462 119.618 12.2213 119.193 13.2656C118.777 14.3099 118.569 15.6111 118.569 17.1694C118.569 18.6869 118.745 19.9515 119.096 20.9631C119.446 21.9666 119.879 22.7254 120.393 23.2394C120.915 23.7534 121.437 24.1042 121.959 24.2918C122.481 24.4713 122.971 24.5611 123.428 24.5611C124.431 24.5611 125.333 24.2918 126.132 23.7534C126.94 23.2149 127.601 22.5377 128.115 21.7219C128.629 20.8979 128.971 20.082 129.143 19.2743H130.318V25.5401Z" fill="#333333"/>
<path d="M144.991 20.6695C144.991 21.7791 144.722 22.7459 144.183 23.5699C143.645 24.3939 142.914 25.0262 141.993 25.4668C141.079 25.8992 140.075 26.1154 138.982 26.1154C137.954 26.1154 136.979 25.9155 136.057 25.5157C135.143 25.1159 134.393 24.5081 133.805 23.6923C133.226 22.8764 132.937 21.877 132.937 20.694C132.937 18.9236 133.54 17.5815 134.748 16.6678C135.955 15.7459 137.391 15.2849 139.055 15.2849C140.296 15.2849 141.364 15.5297 142.262 16.0192C143.159 16.5087 143.836 17.1654 144.293 17.9895C144.758 18.8135 144.991 19.7068 144.991 20.6695ZM141.613 20.5961C141.613 19.2092 141.43 18.1649 141.062 17.4632C140.695 16.7616 139.981 16.4108 138.921 16.4108C138.244 16.4108 137.713 16.5658 137.33 16.8758C136.955 17.1777 136.689 17.6509 136.534 18.2954C136.388 18.9318 136.314 19.7599 136.314 20.7797C136.314 22.0361 136.481 23.0518 136.816 23.8269C137.15 24.602 137.881 24.9895 139.006 24.9895C139.749 24.9895 140.312 24.7774 140.695 24.3531C141.087 23.9207 141.336 23.3904 141.442 22.7622C141.556 22.1258 141.613 21.4038 141.613 20.5961Z" fill="#333333"/>
<path d="M159.615 23.1293C159.615 23.7494 159.489 24.2797 159.236 24.7203C158.983 25.1527 158.64 25.4749 158.208 25.687C157.783 25.891 157.302 25.993 156.764 25.993C156.078 25.993 155.507 25.8339 155.05 25.5157C154.593 25.1894 154.32 24.8018 154.23 24.3531C152.868 25.4464 151.497 25.993 150.118 25.993C149.237 25.993 148.515 25.7809 147.952 25.3566C147.389 24.9242 147.108 24.3572 147.108 23.6556C147.108 23.0763 147.259 22.5542 147.561 22.0891C147.863 21.6159 148.303 21.1958 148.882 20.8286C149.47 20.4615 150.167 20.1392 150.975 19.8618C151.783 19.5763 152.79 19.2785 153.998 18.9685V18.2709C153.998 17.6917 153.859 17.2389 153.582 16.9125C153.312 16.578 152.811 16.4108 152.076 16.4108C151.448 16.4108 150.995 16.5413 150.718 16.8024C150.441 17.0635 150.257 17.4592 150.167 17.9895C150.102 18.3648 149.98 18.6748 149.8 18.9195C149.629 19.1561 149.266 19.2744 148.711 19.2744C148.368 19.2744 148.067 19.1765 147.805 18.9807C147.544 18.7849 147.414 18.4953 147.414 18.1118C147.414 17.3531 147.826 16.6923 148.65 16.1293C149.474 15.5664 150.738 15.2849 152.444 15.2849C154.238 15.2849 155.47 15.5868 156.139 16.1905C156.817 16.7942 157.155 17.6019 157.155 18.6136V22.4807C157.155 22.9702 157.167 23.3292 157.192 23.5577C157.216 23.7861 157.282 23.9615 157.388 24.0839C157.502 24.1981 157.677 24.2552 157.914 24.2552C158.126 24.2552 158.31 24.1451 158.465 23.9248C158.628 23.7045 158.709 23.4394 158.709 23.1293H159.615ZM153.998 23.2272V20.1923C152.448 20.6818 151.461 21.1631 151.036 21.6363C150.62 22.1014 150.412 22.5582 150.412 23.007C150.412 23.3823 150.526 23.6841 150.755 23.9126C150.983 24.141 151.305 24.2552 151.722 24.2552C152.17 24.2552 152.566 24.1614 152.909 23.9737C153.251 23.7861 153.614 23.5373 153.998 23.2272Z" fill="#333333"/>
<path d="M171.29 23.2272C170.303 25.1527 168.716 26.1154 166.529 26.1154C165.51 26.1154 164.543 25.9073 163.629 25.4912C162.723 25.0752 161.993 24.4714 161.438 23.68C160.892 22.8887 160.618 21.9627 160.618 20.9021C160.618 20.1678 160.765 19.4662 161.059 18.7972C161.361 18.1282 161.793 17.5244 162.356 16.986C162.919 16.4475 163.584 16.0314 164.351 15.7377C165.126 15.4358 165.954 15.2849 166.835 15.2849C167.961 15.2849 168.952 15.5093 169.809 15.958C170.666 16.3985 171.094 17.0104 171.094 17.7937C171.094 18.1526 170.959 18.4586 170.69 18.7115C170.421 18.9644 170.111 19.0909 169.76 19.0909C169.426 19.0909 169.169 19.0134 168.989 18.8583C168.81 18.7033 168.691 18.5442 168.634 18.3811C168.577 18.2179 168.496 17.9283 168.389 17.5122C168.283 17.1124 168.108 16.8309 167.863 16.6678C167.618 16.4964 167.276 16.4108 166.835 16.4108C166.093 16.4108 165.432 16.6882 164.853 17.243C164.282 17.7896 163.996 18.8176 163.996 20.3269C163.996 21.1346 164.11 21.877 164.339 22.5542C164.575 23.2313 164.942 23.7698 165.44 24.1696C165.946 24.5612 166.562 24.757 167.288 24.757C168.096 24.757 168.712 24.5571 169.136 24.1573C169.56 23.7575 169.936 23.2884 170.262 22.75L171.29 23.2272Z" fill="#333333"/>
<path d="M186.085 25.7114H179.795V24.5855C180.358 24.5855 180.746 24.4876 180.958 24.2918C181.17 24.0879 181.276 23.7942 181.276 23.4107V19.2988C181.276 18.8909 181.247 18.5237 181.19 18.1974C181.141 17.8711 181.003 17.5774 180.774 17.3163C180.546 17.047 180.195 16.9124 179.722 16.9124C179.338 16.9124 178.947 17.0185 178.547 17.2306C178.155 17.4346 177.853 17.7038 177.641 18.0383C177.413 18.4136 177.266 18.7767 177.201 19.1275C177.144 19.4701 177.115 19.8862 177.115 20.3757V22.4806C177.115 23.0517 177.135 23.4719 177.176 23.7411C177.225 24.0022 177.352 24.2102 177.556 24.3653C177.768 24.5121 178.114 24.5855 178.596 24.5855V25.7114H172.183V24.5855C172.73 24.5855 173.13 24.5284 173.382 24.4142C173.644 24.3 173.803 24.1327 173.86 23.9125C173.925 23.684 173.958 23.3128 173.958 22.7988V12.5313C173.958 11.9194 173.86 11.5115 173.664 11.3075C173.468 11.0954 172.975 10.9853 172.183 10.9771V9.87569L177.115 8.82324V17.0838C177.596 16.5779 178.094 16.1537 178.608 15.811C179.13 15.4602 179.852 15.2848 180.774 15.2848C181.198 15.2848 181.623 15.346 182.047 15.4684C182.471 15.5908 182.85 15.7702 183.185 16.0068C183.528 16.2434 183.776 16.5127 183.931 16.8145C184.266 17.4101 184.433 18.1852 184.433 19.1397V22.7988C184.433 23.4841 184.519 23.9533 184.69 24.2062C184.87 24.4591 185.335 24.5855 186.085 24.5855V25.7114Z" fill="#333333"/>
<path d="M26.9181 16.4698C21.4912 15.2846 17.2807 10.9805 16.3138 5.49123C16.0019 3.80702 15.6277 2.24756 15.1287 1C14.6296 2.24756 14.2554 3.83821 13.9435 5.52242C12.9454 10.9805 8.7037 15.3158 3.2768 16.501C1.93567 16.7817 1 17 1 17C1.93567 17.3743 2.93372 17.6862 3.96296 17.9357C9.14035 19.2456 13.0078 23.5497 14.0058 28.7895C14.2866 30.3489 14.6608 31.8148 15.1287 33C15.5965 31.846 15.9708 30.3801 16.2515 28.7895C17.2495 23.5497 21.117 19.2456 26.2943 17.9357C27.3236 17.6862 28.3216 17.3743 29.2573 17C29.2261 16.9688 28.2904 16.7505 26.9181 16.4698Z" fill="#333333" stroke="#333333" stroke-width="0.930185" stroke-miterlimit="10" stroke-linecap="round" stroke-linejoin="round"/>
</svg>
